<?xml version="1.0" encoding="utf-8"?>
<!-- Generator: Adobe Illustrator 25.3.1, SVG Export Plug-In . SVG Version: 6.00 Build 0)  -->
<svg version="1.1" id="Layer_1" xmlns="http://www.w3.org/2000/svg" xmlns:xlink="http://www.w3.org/1999/xlink" x="0px" y="0px"
	 viewBox="0 0 133 28" style="enable-background:new 0 0 133 28;" xml:space="preserve">
<style type="text/css">
	.st0{fill:#FFFFFF;}
</style>
<g>
	<path class="st0" d="M58.7,7.3c-0.5-0.6-1.9-1.7-4.4-1.7c-4,0-6.7,3-6.7,7.5s2.8,7.6,6.8,7.6c1.7,0,3-0.5,3.9-1.6
		c0,0.1,0,0.2,0,0.2v0.7c0,3-2.4,3.4-3.9,3.4c-1.4,0-2.7-0.3-4-1l-0.2-0.1L49,25.6l0.2,0.1c1.6,0.8,3.5,1.3,5.3,1.3
		c3.8,0,8-1.9,8-7.1V9.8c0-0.3,0.2-0.4,0.4-0.4h1.3V5.9h-3.6C59.4,5.9,58.8,6.6,58.7,7.3z M55.2,16.9c-2.1,0-3.4-1.5-3.4-4
		c0-2.3,1.2-3.6,3.1-3.6c2.3,0,3.5,1.2,3.5,3.8h0C58.5,16.3,56.7,16.9,55.2,16.9z"/>
	<path class="st0" d="M20,5.5c-4.7,0-8.2,3.4-8.2,7.9c0,4.5,3.5,7.9,8.2,7.9s8.3-3.4,8.3-7.9C28.3,8.9,24.7,5.5,20,5.5z M20,17.5
		c-2.3,0-4-1.8-4-4.1c0-2.3,1.7-4.1,4-4.1c2.3,0,4.1,1.8,4.1,4.1C24.1,15.8,22.4,17.5,20,17.5z"/>
	<path class="st0" d="M74.5,0c-1.9,0-6.2,0.5-6.2,5.6v0.2h-1.8v3.5h1.8V21h4.1V9.4h3.1V5.9h-3.1V5.7c0-1.5,0.9-2.2,2.6-2.2
		c0.2,0,0.5,0,0.7,0.1l0.2,0V0.1l-0.2,0C75.4,0,74.9,0,74.5,0z"/>
	<path class="st0" d="M84.7,5.5c-4.7,0-8.2,3.4-8.2,7.9c0,4.5,3.5,7.9,8.2,7.9c4.7,0,8.3-3.4,8.3-7.9C93,8.9,89.4,5.5,84.7,5.5z
		 M84.7,17.5c-2.3,0-4-1.8-4-4.1c0-2.3,1.7-4.1,4-4.1c2.3,0,4.1,1.8,4.1,4.1C88.8,15.8,87,17.5,84.7,17.5z"/>
	<path class="st0" d="M100.1,8.1V7.7c0-1.2-0.8-1.8-2.1-1.8h-3.6v3.5h1.4c0.3,0,0.4,0.1,0.4,0.4V21h4.1v-6c0-0.8,0.1-1.6,0.3-2.3
		c0.7-2.2,2.1-3.2,4.5-3.2h0.4V5.9h-0.9C101.7,5.9,100.6,7,100.1,8.1z"/>
	<path class="st0" d="M40,5.5c-2.8,0-4.3,1.5-5,2.5V7.7c0-1.2-0.8-1.8-2.1-1.8h-3.6v3.5h1.4c0.3,0,0.4,0.1,0.4,0.4V21h4.1V14
		c0-0.6,0.1-1.3,0.3-1.9c0.2-0.8,0.7-1.5,1.4-2.1c0.7-0.5,1.5-0.8,2.4-0.8c1.5,0,2.1,0.8,2.1,2.8V21h4.1v-9.6
		C45.3,7.5,43.5,5.5,40,5.5z"/>
	<path class="st0" d="M127,5.5c-1,0-2,0.3-2.9,0.7c-0.9,0.5-1.6,1.2-2.1,2.1c-0.7-1.9-2.2-2.8-4.4-2.8c-2,0-3.7,1.2-4.6,2.6V7.7
		c0-1.2-0.8-1.8-2.1-1.8h-3.6v3.5h1.4c0.3,0,0.4,0.1,0.4,0.4V21h4.1v-6.7c0-0.6,0.1-1.2,0.2-1.8c0.4-1.6,1.5-3.2,3.4-3.2
		c1.5,0,1.8,1,1.8,2.7v9h4.1v-6.7c0-0.6,0.1-1.2,0.2-1.8c0.4-1.6,1.5-3.2,3.3-3.2c1.5,0,1.8,1,1.8,2.7v9h4.1v-9.6
		C132,7.5,130.3,5.5,127,5.5z"/>
	<path class="st0" d="M6.2,17.4c-0.1,0-0.1-0.1-0.2-0.1c0,0-0.1-0.1-0.1-0.2s0-0.1,0-0.2V2.3c0-1.5-0.7-2.2-2.2-2.2H0v3.5h1.5
		c0.3,0,0.4,0.1,0.4,0.4V21h9.4v-3.5H6.4C6.3,17.5,6.3,17.5,6.2,17.4z"/>
</g>
</svg>
