<?xml version="1.0" encoding="utf-8"?>
<!-- Generator: Adobe Illustrator 25.3.1, SVG Export Plug-In . SVG Version: 6.00 Build 0)  -->
<svg version="1.1" id="Layer_1" xmlns="http://www.w3.org/2000/svg" xmlns:xlink="http://www.w3.org/1999/xlink" x="0px" y="0px"
	 viewBox="0 0 68 27" style="enable-background:new 0 0 68 27;" xml:space="preserve">
<style type="text/css">
	.st0{fill:#FFFFFF;}
</style>
<g>
	<path class="st0" d="M23.5,20c-0.5,0-1-0.1-1.5-0.2c-0.5-0.2-1-0.4-1.4-0.7c-0.4-0.3-0.8-0.7-1.1-1.1c-0.6-0.7-0.9-1.6-0.9-2.5
		c0-1.8,0-3.5,0-5.3c0,0,0-0.1,0-0.1c0.1,0,0.2,0,0.3,0c1.5,0,3,0,4.5,0c0.2,0,0.2,0,0.2-0.2c0-1,0-2,0-2.9c0-0.1,0-0.1,0-0.2
		c-1.7,0-3.3,0-5,0c0,0,0,0,0-0.1c0-2.2,0-4.4,0-6.6c-1.1,0-2.2,0-3.3,0c0,0.1,0,0.2,0,0.3c0,2,0,4.1,0,6.1c0,0.1,0,0.1,0,0.2
		c-0.6,0-1.1,0-1.7,0c0,0.1,0,0.1,0,0.1c0,1,0,2,0,3.1c0,0.2,0.1,0.2,0.2,0.2c0.4,0,0.8,0,1.3,0c0.2,0,0.2,0,0.2,0.2
		c0,1.6,0,3.2,0,4.8c0,0.6,0,1.1,0.1,1.7c0.1,0.6,0.3,1.1,0.5,1.6c0.4,0.9,0.9,1.7,1.5,2.3c0.4,0.4,0.8,0.7,1.2,1.1
		c0.5,0.4,1,0.7,1.6,0.9c0.5,0.2,1,0.4,1.6,0.5c0.5,0.1,1,0.1,1.5,0.2c0.2,0,0.2,0,0.2-0.2c0-1,0-2,0-3C23.5,20.2,23.5,20.1,23.5,20
		z"/>
	<path class="st0" d="M33.6,6.7c-4.7-0.1-8.6,3.8-8.5,8.4c0,2.4,0.8,4.4,2.5,6c1.6,1.6,3.5,2.3,5.7,2.4c2.5,0,4.5-0.9,6.2-2.7
		c1.5-1.6,2.2-3.4,2.2-5.6c0-2.4-0.8-4.5-2.6-6.2C37.7,7.5,35.8,6.7,33.6,6.7z M33.4,20c-2.5,0-5-2.2-4.9-5.2c0.1-2.5,2.2-4.9,5-4.8
		c2.8-0.1,5,2.3,5,5C38.5,17.7,36.2,20.1,33.4,20z"/>
	<path class="st0" d="M11.7,16.5c-0.2-0.6-0.6-1.1-1.1-1.5c-0.7-0.5-1.5-0.8-2.3-1c-0.4-0.1-0.9-0.2-1.3-0.4
		c-0.6-0.2-1.2-0.5-1.8-0.7c-0.4-0.2-0.8-0.4-1.2-0.7c-0.6-0.5-0.6-1.2-0.3-1.8C4,9.8,4.5,9.7,5,9.6c0.7-0.1,1.5,0,2.2,0.2
		c0.5,0.2,0.9,0.3,1.4,0.5c0.6,0.3,1.1,0.6,1.7,0.9c0.5-0.9,1-1.9,1.5-2.8c-0.1,0-0.1-0.1-0.2-0.1c-0.4-0.2-0.8-0.4-1.2-0.6
		C9.6,7.2,8.7,7,7.8,6.8c-0.5-0.1-1-0.2-1.5-0.2c-0.5,0-1.1,0-1.6,0c-0.6,0-1.1,0.1-1.6,0.3C2.6,7,2.1,7.3,1.7,7.6
		C0.9,8.3,0.4,9.1,0.2,10C0,10.5,0,10.9,0,11.4c0,0.5,0.2,1,0.3,1.4c0.3,0.9,0.8,1.5,1.7,1.9c0.6,0.3,1.3,0.6,1.9,0.8
		c0.7,0.3,1.4,0.6,2.2,0.8c0.7,0.2,1.3,0.5,1.9,0.9c0.4,0.3,0.7,0.6,0.6,1.2c0,0.2-0.1,0.4-0.2,0.6c-0.3,0.7-1.3,1.2-2,1.1
		c-0.2,0-0.4,0-0.6-0.1c-0.2,0-0.4,0-0.6-0.1c-0.4-0.1-0.7-0.2-1.1-0.3c-0.4-0.1-0.7-0.2-1.1-0.3c-0.5-0.2-0.9-0.4-1.4-0.6
		c0,0-0.1,0-0.1,0.1c-0.1,0.2-0.2,0.3-0.3,0.5c-0.3,0.7-0.7,1.3-1.1,2c-0.1,0.3-0.1,0.2,0.1,0.4c0.1,0,0.1,0.1,0.2,0.1
		c0.6,0.2,1.2,0.5,1.7,0.7C2.9,22.8,3.4,23,4,23.1c0.5,0.1,1.1,0.2,1.7,0.2c0.7,0,1.5-0.1,2.2-0.3c0.4-0.1,0.9-0.2,1.3-0.4
		c0.8-0.4,1.5-1,2.1-1.8c0.4-0.6,0.6-1.2,0.7-1.9c0.1-0.4,0-0.8,0-1.3C12,17.3,11.9,16.9,11.7,16.5z"/>
	<path class="st0" d="M67.4,6.7c-1.1,0-2.3,0-3.4,0c-0.1,0-0.2,0.1-0.2,0.1c-0.2,0.5-0.5,1-0.7,1.5c-0.3,0.7-0.6,1.3-0.9,2
		c-0.3,0.7-0.6,1.4-1,2.1c-0.3,0.8-0.7,1.5-1,2.3c0,0.1-0.1,0.2-0.2,0.3c-0.1-0.3-0.2-0.5-0.3-0.7c-0.3-0.6-0.6-1.3-0.9-1.9
		c-0.4-0.9-0.8-1.9-1.2-2.8C57.4,8.8,57,8,56.6,7.1c-0.2-0.4-0.2-0.4-0.7-0.4c-1,0-2,0-3.1,0c0,0,0,0.1,0,0.1
		c0.3,0.6,0.5,1.2,0.8,1.8c0.2,0.5,0.4,1,0.6,1.4c0.3,0.8,0.7,1.6,1,2.3c0.3,0.7,0.6,1.3,0.9,2c0.3,0.8,0.7,1.5,1,2.3
		c0.4,0.8,0.7,1.6,1.1,2.5c0,0.1,0,0.2,0,0.3c-0.2,0.5-0.4,1-0.7,1.5c-0.4,0.9-0.8,1.8-1.2,2.7c-0.4,1-0.9,1.9-1.3,2.9
		c-0.1,0.3-0.1,0.3,0.2,0.3c1.1,0,2.1,0,3.1,0c0.2,0,0.3-0.1,0.4-0.3c0.3-0.6,0.5-1.2,0.8-1.8c0.3-0.8,0.7-1.5,1-2.3
		c0.4-0.9,0.8-1.8,1.2-2.7c0.4-0.8,0.7-1.7,1.1-2.5c0.3-0.6,0.5-1.2,0.8-1.8c0.3-0.8,0.7-1.5,1-2.3c0.3-0.7,0.6-1.4,0.9-2.2
		c0.3-0.7,0.6-1.5,1-2.2c0.2-0.5,0.4-1,0.7-1.5C67.4,7,67.4,6.9,67.4,6.7C67.4,6.7,67.4,6.7,67.4,6.7z"/>
	<path class="st0" d="M51.8,6.7c-0.9,0-1.8,0.1-2.7,0.4c-0.8,0.3-1.6,0.7-2.4,1.2c0-0.6,0-1.1,0-1.6c-1.1,0-2.2,0-3.3,0
		c0,0.1,0,0.1,0,0.2c0,5.4,0,10.8,0,16.2c0,0.2,0,0.2,0.2,0.2c1,0,1.9,0,2.9,0c0.2,0,0.2-0.1,0.2-0.2c0-2.5,0-5,0-7.5
		c0-0.5,0-0.9,0.1-1.4c0-0.3,0.1-0.7,0.2-1c0.4-0.9,1-1.7,1.9-2.3c0.8-0.5,1.7-0.8,2.6-0.8c0.2,0,0.2-0.1,0.2-0.2c0-1,0-2,0-3
		C51.8,6.8,51.8,6.8,51.8,6.7z"/>
</g>
</svg>
